<svg xmlns="http://www.w3.org/2000/svg" viewBox="0 -0.5 40 40" shape-rendering="crispEdges">
<metadata>Made with Pixels to Svg https://codepen.io/shshaw/pen/XbxvNj</metadata>
<path stroke="#074d91" d="M15 7h2M23 7h2M14 8h4M22 8h4M14 9h4M22 9h4M14 10h4M22 10h4M14 11h4M22 11h4M14 12h4M22 12h4M14 13h4M22 13h4M14 14h4M22 14h4M14 15h4M22 15h4M14 16h4M22 16h4M14 17h4M22 17h4M14 18h4M22 18h4M0 19h18M22 19h18M0 20h18M22 20h18M14 21h4M22 21h4M14 22h4M22 22h4M14 23h4M22 23h4M14 24h4M22 24h4M14 25h4M22 25h4M14 26h4M22 26h4M14 27h4M22 27h4M14 28h4M22 28h4M14 29h4M22 29h4M14 30h4M22 30h4M14 31h4M22 31h4M15 32h2M23 32h2" />
</svg>