<svg xmlns="http://www.w3.org/2000/svg" viewBox="0 -0.5 40 40" shape-rendering="crispEdges">
<metadata>Made with Pixels to Svg https://codepen.io/shshaw/pen/XbxvNj</metadata>
<path stroke="#0000e7" d="M15 7h3M22 7h3M15 8h3M22 8h3M15 9h3M22 9h3M15 10h3M22 10h3M15 11h3M22 11h3M15 12h3M22 12h3M15 13h3M22 13h3M15 14h3M22 14h3M15 15h3M22 15h3M15 16h3M22 16h3M15 17h3M22 17h3M15 18h3M22 18h3M0 19h18M22 19h18M0 20h18M22 20h18M15 21h3M22 21h3M15 22h3M22 22h3M15 23h3M22 23h3M15 24h3M22 24h3M15 25h3M22 25h3M15 26h3M22 26h3M15 27h3M22 27h3M15 28h3M22 28h3M15 29h3M22 29h3M15 30h3M22 30h3M15 31h3M22 31h3M15 32h3M22 32h3" />
</svg>