<svg xmlns="http://www.w3.org/2000/svg" viewBox="0 -0.5 40 40" shape-rendering="crispEdges">
<metadata>Made with Pixels to Svg https://codepen.io/shshaw/pen/XbxvNj</metadata>
<path stroke="#074d91" d="M16 7h2M30 7h2M8 8h1M15 8h4M29 8h3M8 9h1M15 9h4M28 9h4M8 10h1M15 10h4M27 10h4M5 11h7M15 11h4M26 11h4M8 12h1M15 12h4M25 12h4M8 13h1M15 13h4M25 13h3M8 14h1M15 14h4M24 14h4M15 15h4M24 15h3M15 16h4M23 16h4M15 17h4M23 17h3M15 18h4M23 18h3M0 19h19M23 19h17M0 20h19M23 20h17M15 21h4M23 21h3M15 22h4M23 22h3M15 23h4M23 23h3M15 24h4M23 24h4M15 25h4M24 25h3M15 26h4M24 26h4M15 27h4M25 27h3M15 28h4M25 28h4M15 29h4M26 29h4M15 30h4M27 30h4M15 31h4M28 31h4M15 32h4M29 32h3M16 33h2M30 33h2" />
</svg>