<svg xmlns="http://www.w3.org/2000/svg" viewBox="0 -0.5 40 40" shape-rendering="crispEdges">
<metadata>Made with Pixels to Svg https://codepen.io/shshaw/pen/XbxvNj</metadata>
<path stroke="#0000e7" d="M15 8h3M29 8h1M15 9h3M28 9h2M15 10h3M27 10h4M15 11h3M26 11h4M15 12h3M25 12h4M15 13h3M25 13h3M15 14h3M24 14h4M15 15h3M24 15h3M15 16h3M24 16h3M15 17h3M23 17h3M15 18h3M23 18h3M0 19h18M23 19h17M0 20h18M23 20h17M15 21h3M23 21h3M15 22h3M23 22h3M15 23h3M23 23h3M15 24h3M24 24h3M15 25h3M24 25h3M15 26h3M24 26h4M15 27h3M25 27h3M15 28h3M25 28h4M15 29h3M26 29h4M15 30h3M27 30h4M15 31h3M28 31h2M15 32h3M29 32h1" />
<path stroke="#ff0000" d="M9 9h1M9 10h1M9 11h1M6 12h7M9 13h1M9 14h1M9 15h1" />
</svg>