<svg xmlns="http://www.w3.org/2000/svg" viewBox="0 -0.5 35 35" shape-rendering="crispEdges">
<metadata>Made with Pixels to Svg https://codepen.io/shshaw/pen/XbxvNj</metadata>
<path stroke="#ffffff" d="M13 7h1M21 7h1M13 8h1M21 8h1M13 9h1M21 9h1M13 10h1M21 10h1M13 11h1M21 11h1M13 12h1M21 12h1M7 13h21M13 14h1M21 14h1M13 15h1M21 15h1M13 16h1M21 16h1M13 17h1M21 17h1M13 18h1M21 18h1M13 19h1M21 19h1M13 20h1M21 20h1M7 21h21M13 22h1M21 22h1M13 23h1M21 23h1M13 24h1M21 24h1M13 25h1M21 25h1M13 26h1M21 26h1M13 27h1M21 27h1M13 28h1M21 28h1" />
</svg>