<svg xmlns="http://www.w3.org/2000/svg" viewBox="0 -0.5 40 40" shape-rendering="crispEdges">
<metadata>Made with Pixels to Svg https://codepen.io/shshaw/pen/XbxvNj</metadata>
<path stroke="#074d91" d="M29 0h2M29 1h2M31 2h2M31 3h2M7 4h28M7 5h28M31 6h2M17 7h7M31 7h2M15 8h11M29 8h2M13 9h4M24 9h4M29 9h2M12 10h3M26 10h3M11 11h2M28 11h2M10 12h2M18 12h5M29 12h2M10 13h2M18 13h7M29 13h2M9 14h2M22 14h4M30 14h2M9 15h2M24 15h2M30 15h2M8 16h2M24 16h2M31 16h2M8 17h2M23 17h3M31 17h2M8 18h2M21 18h4M31 18h2M0 19h10M19 19h5M31 19h9M0 20h10M17 20h5M31 20h9M8 21h2M16 21h4M31 21h2M8 22h2M15 22h3M31 22h2M8 23h2M15 23h2M31 23h2M9 24h2M15 24h2M30 24h2M9 25h2M15 25h4M30 25h2M10 26h2M16 26h7M29 26h2M10 27h2M18 27h5M29 27h2M11 28h2M28 28h2M12 29h3M26 29h3M13 30h4M24 30h4M15 31h11M17 32h7" />
</svg>