<svg xmlns="http://www.w3.org/2000/svg" viewBox="0 -0.5 40 40" shape-rendering="crispEdges">
<metadata>Made with Pixels to Svg https://codepen.io/shshaw/pen/XbxvNj</metadata>
<path stroke="#074d91" d="M29 0h2M29 1h2M31 2h2M31 3h2M7 4h28M7 5h28M31 6h2M17 7h7M31 7h2M15 8h11M29 8h2M13 9h4M24 9h4M29 9h2M12 10h3M26 10h3M11 11h2M28 11h2M10 12h2M29 12h2M10 13h2M29 13h2M9 14h2M14 14h4M30 14h2M9 15h2M13 15h6M30 15h2M8 16h2M13 16h2M17 16h3M31 16h2M8 17h2M12 17h3M18 17h2M26 17h2M31 17h2M8 18h2M12 18h2M18 18h3M26 18h2M31 18h2M0 19h10M12 19h2M19 19h2M26 19h2M31 19h9M0 20h10M12 20h2M19 20h2M26 20h2M31 20h9M8 21h2M12 21h2M20 21h2M25 21h3M31 21h2M8 22h2M20 22h3M25 22h2M31 22h2M8 23h2M21 23h6M31 23h2M9 24h2M22 24h4M30 24h2M9 25h2M30 25h2M10 26h2M29 26h2M10 27h2M29 27h2M11 28h2M28 28h2M12 29h3M26 29h3M13 30h4M24 30h4M15 31h11M17 32h7" />
<path stroke="rgba(7,77,145,0.9921568627450981)" d="M21 20h1" />
</svg>