<svg xmlns="http://www.w3.org/2000/svg" viewBox="0 -0.5 40 40" shape-rendering="crispEdges">
<metadata>Made with Pixels to Svg https://codepen.io/shshaw/pen/XbxvNj</metadata>
<path stroke="#0000e7" d="M16 8h9M14 9h13M12 10h4M25 10h4M11 11h3M27 11h3M10 12h3M28 12h3M10 13h2M29 13h2M9 14h2M30 14h2M9 15h2M19 15h3M30 15h2M8 16h2M19 16h4M31 16h2M8 17h2M19 17h6M31 17h2M8 18h2M21 18h5M31 18h2M0 19h10M12 19h17M31 19h9M0 20h10M12 20h17M31 20h9M8 21h2M12 21h17M31 21h2M8 22h2M21 22h5M31 22h2M8 23h2M19 23h6M31 23h2M8 24h2M19 24h4M31 24h2M34 24h1M9 25h2M19 25h3M30 25h2M34 25h4M9 26h2M30 26h2M36 26h3M10 27h2M29 27h2M37 27h2M10 28h3M28 28h3M37 28h2M11 29h3M27 29h3M37 29h2M12 30h4M25 30h4M34 30h5M14 31h13M33 31h5M16 32h9M32 32h3M32 33h2M31 34h2M32 35h2M32 36h4M33 37h3" />
</svg>