<svg xmlns="http://www.w3.org/2000/svg" viewBox="0 -0.5 40 40" shape-rendering="crispEdges">
<metadata>Made with Pixels to Svg https://codepen.io/shshaw/pen/XbxvNj</metadata>
<path stroke="#074d91" d="M17 7h7M15 8h11M13 9h4M24 9h4M12 10h3M26 10h3M11 11h2M28 11h2M10 12h2M29 12h2M10 13h2M29 13h2M9 14h2M30 14h2M9 15h2M23 15h2M30 15h2M8 16h2M24 16h2M31 16h2M8 17h2M25 17h2M31 17h2M8 18h2M26 18h2M31 18h2M0 19h10M12 19h18M31 19h9M0 20h10M12 20h18M31 20h9M8 21h2M26 21h2M31 21h2M8 22h2M25 22h2M31 22h2M8 23h2M24 23h2M31 23h2M9 24h2M23 24h2M30 24h2M9 25h2M30 25h2M10 26h2M29 26h2M10 27h2M29 27h2M11 28h2M28 28h2M12 29h3M26 29h3M13 30h4M24 30h4M15 31h11M17 32h7" />
</svg>