<svg xmlns="http://www.w3.org/2000/svg" viewBox="0 -0.5 40 40" shape-rendering="crispEdges">
<metadata>Made with Pixels to Svg https://codepen.io/shshaw/pen/XbxvNj</metadata>
<path stroke="#074d91" d="M16 14h8M14 15h12M12 16h4M24 16h4M11 17h3M26 17h3M10 18h2M22 18h2M28 18h2M9 19h2M24 19h2M29 19h2M9 20h2M13 20h15M29 20h2M8 21h2M14 21h14M30 21h2M8 22h2M24 22h2M30 22h2M7 23h2M14 23h2M22 23h2M31 23h2M7 24h2M14 24h5M31 24h2M7 25h2M16 25h6M31 25h2M7 26h2M18 26h7M31 26h2M7 27h2M18 27h2M22 27h4M31 27h2M7 28h2M18 28h2M25 28h3M31 28h2M0 29h9M18 29h2M25 29h2M31 29h9M0 30h9M18 30h2M22 30h4M31 30h9M8 31h2M18 31h7M30 31h2M8 32h2M16 32h6M30 32h2M9 33h2M14 33h5M29 33h2M9 34h2M14 34h2M29 34h2M10 35h2M28 35h2M11 36h3M26 36h3M12 37h4M24 37h4M14 38h12M16 39h8" />
<path stroke="rgba(0,64,159,0.03137254901960784)" d="M28 15h1" />
<path stroke="rgba(7,77,145,0.9098039215686274)" d="M13 21h1" />
<path stroke="rgba(0,85,142,0.03529411764705882)" d="M12 22h1" />
<path stroke="rgba(7,77,145,0.984313725490196)" d="M27 29h1" />
<path stroke="rgba(0,64,128,0.01568627450980392)" d="M27 31h1" />
</svg>