<svg xmlns="http://www.w3.org/2000/svg" viewBox="0 -0.5 40 40" shape-rendering="crispEdges">
<metadata>Made with Pixels to Svg https://codepen.io/shshaw/pen/XbxvNj</metadata>
<path stroke="#0000e7" d="M0 0h40M0 1h1M39 1h1M0 2h1M39 2h1M0 3h1M3 3h34M39 3h1M0 4h1M3 4h34M39 4h1M0 5h1M3 5h2M35 5h2M39 5h1M0 6h1M3 6h2M9 6h1M35 6h2M39 6h1M0 7h1M3 7h2M8 7h3M35 7h2M39 7h1M0 8h1M3 8h2M9 8h2M14 8h12M35 8h2M39 8h1M0 9h1M3 9h2M10 9h19M35 9h2M39 9h1M0 10h1M3 10h2M9 10h5M26 10h5M35 10h2M39 10h1M0 11h1M3 11h2M8 11h5M28 11h4M35 11h2M39 11h1M0 12h1M3 12h2M7 12h3M11 12h3M30 12h3M35 12h2M39 12h1M0 13h1M3 13h2M7 13h2M12 13h2M31 13h2M35 13h2M39 13h1M0 14h1M3 14h2M13 14h2M35 14h2M39 14h1M0 15h1M3 15h2M13 15h2M35 15h2M39 15h1M0 16h1M3 16h2M14 16h2M35 16h2M39 16h1M0 17h1M3 17h2M14 17h3M35 17h2M39 17h1M0 18h1M3 18h2M15 18h2M35 18h2M39 18h1M0 19h1M3 19h2M16 19h2M35 19h2M39 19h1M0 20h1M3 20h2M16 20h2M35 20h2M39 20h1M0 21h1M3 21h34M39 21h1M0 22h1M3 22h34M39 22h1M0 23h1M18 23h1M39 23h1M0 24h1M39 24h1M0 25h1M15 25h3M39 25h1M0 26h1M15 26h5M39 26h1M0 27h1M15 27h7M39 27h1M0 28h1M17 28h7M39 28h1M0 29h40M0 30h40M0 31h40M0 32h1M17 32h7M39 32h1M0 33h1M15 33h7M39 33h1M0 34h1M15 34h5M39 34h1M0 35h1M15 35h3M39 35h1M0 36h1M39 36h1M0 37h1M39 37h1M0 38h1M39 38h1M0 39h40" />
</svg>