<svg xmlns="http://www.w3.org/2000/svg" viewBox="0 -0.5 40 40" shape-rendering="crispEdges">
<metadata>Made with Pixels to Svg https://codepen.io/shshaw/pen/XbxvNj</metadata>
<path stroke="#074d91" d="M16 14h8M14 15h12M12 16h4M24 16h4M11 17h3M19 17h2M26 17h3M10 18h2M19 18h2M28 18h2M9 19h2M18 19h4M29 19h2M9 20h2M17 20h2M21 20h2M29 20h2M8 21h2M17 21h2M21 21h2M30 21h2M8 22h2M17 22h2M21 22h2M30 22h2M7 23h2M16 23h2M22 23h2M31 23h2M7 24h2M16 24h2M22 24h2M31 24h2M7 25h2M16 25h8M31 25h2M7 26h2M15 26h10M31 26h2M7 27h2M15 27h2M23 27h2M31 27h2M7 28h2M15 28h2M23 28h2M31 28h2M0 29h9M14 29h2M24 29h2M31 29h9M0 30h9M14 30h2M24 30h2M31 30h9M8 31h2M21 31h2M30 31h2M8 32h2M23 32h2M30 32h2M9 33h2M12 33h15M29 33h2M9 34h2M12 34h15M29 34h2M10 35h2M23 35h2M28 35h2M11 36h3M21 36h2M26 36h3M12 37h4M24 37h4M14 38h12M16 39h8" />
</svg>