<svg xmlns="http://www.w3.org/2000/svg" viewBox="0 -0.5 40 40" shape-rendering="crispEdges">
<metadata>Made with Pixels to Svg https://codepen.io/shshaw/pen/XbxvNj</metadata>
<path stroke="rgba(0,128,128,0.00784313725490196)" d="M12 9h1" />
<path stroke="rgba(0,85,142,0.03529411764705882)" d="M14 10h1" />
<path stroke="#074d91" d="M16 14h8M14 15h12M12 16h4M24 16h4M11 17h3M21 17h2M26 17h3M10 18h2M23 18h2M28 18h2M9 19h2M12 19h15M29 19h2M9 20h2M13 20h14M29 20h2M8 21h2M23 21h2M30 21h2M8 22h2M21 22h2M30 22h2M7 23h2M14 23h2M24 23h2M31 23h2M7 24h2M14 24h2M24 24h2M31 24h2M7 25h2M15 25h2M23 25h2M31 25h2M7 26h2M15 26h2M23 26h2M31 26h2M7 27h2M15 27h10M31 27h2M7 28h2M16 28h8M31 28h2M0 29h9M16 29h2M22 29h2M31 29h9M0 30h9M16 30h2M22 30h2M31 30h9M8 31h2M17 31h2M21 31h2M30 31h2M8 32h2M17 32h2M21 32h2M30 32h2M9 33h2M17 33h2M21 33h2M29 33h2M9 34h2M18 34h4M29 34h2M10 35h2M19 35h2M28 35h2M11 36h3M19 36h2M26 36h3M12 37h4M24 37h4M14 38h12M16 39h8" />
<path stroke="rgba(0,64,159,0.03137254901960784)" d="M28 15h1" />
<path stroke="rgba(7,77,145,0.9098039215686274)" d="M12 20h1" />
<path stroke="rgba(0,102,153,0.0196078431372549)" d="M13 22h1" />
</svg>