<svg xmlns="http://www.w3.org/2000/svg" viewBox="0 -0.5 40 40" shape-rendering="crispEdges">
<metadata>Made with Pixels to Svg https://codepen.io/shshaw/pen/XbxvNj</metadata>
<path stroke="#074d91" d="M16 14h8M14 15h12M12 16h4M24 16h4M11 17h3M26 17h3M10 18h2M28 18h2M9 19h2M24 19h2M29 19h2M9 20h2M21 20h5M29 20h2M8 21h2M18 21h6M30 21h2M8 22h2M15 22h7M30 22h2M7 23h2M14 23h4M20 23h2M31 23h2M7 24h2M12 24h3M20 24h2M31 24h2M7 25h2M12 25h3M20 25h2M31 25h2M7 26h2M14 26h4M20 26h2M31 26h2M7 27h2M15 27h7M31 27h2M7 28h2M18 28h6M31 28h2M0 29h9M21 29h5M31 29h9M0 30h9M24 30h2M31 30h9M8 31h2M21 31h2M30 31h2M8 32h2M23 32h2M30 32h2M9 33h2M12 33h15M29 33h2M9 34h2M13 34h14M29 34h2M10 35h1M23 35h2M28 35h2M11 36h2M21 36h2M26 36h3M12 37h4M24 37h4M14 38h12M16 39h8" />
<path stroke="rgba(0,64,159,0.03137254901960784)" d="M28 15h1" />
<path stroke="rgba(7,77,145,0.9098039215686274)" d="M12 34h1" />
<path stroke="rgba(7,77,145,0.9921568627450981)" d="M11 35h1" />
<path stroke="rgba(7,77,145,0.9490196078431372)" d="M13 36h1" />
</svg>