<svg xmlns="http://www.w3.org/2000/svg" viewBox="0 -0.5 40 40" shape-rendering="crispEdges">
<metadata>Made with Pixels to Svg https://codepen.io/shshaw/pen/XbxvNj</metadata>
<path stroke="#074d91" d="M16 14h8M14 15h12M12 16h4M24 16h4M11 17h3M26 17h3M3 18h1M10 18h2M28 18h2M36 18h1M3 19h1M9 19h2M29 19h2M36 19h1M3 20h1M9 20h2M29 20h2M36 20h1M0 21h7M8 21h2M24 21h2M30 21h2M36 21h1M3 22h1M8 22h2M21 22h5M30 22h2M36 22h1M3 23h1M7 23h2M18 23h6M31 23h2M36 23h1M3 24h1M7 24h2M15 24h7M31 24h2M36 24h1M7 25h2M14 25h4M20 25h2M31 25h2M7 26h2M12 26h3M20 26h2M31 26h2M7 27h2M12 27h3M20 27h2M31 27h2M7 28h2M14 28h4M20 28h2M31 28h2M0 29h9M15 29h7M31 29h9M0 30h9M18 30h6M31 30h9M8 31h2M21 31h5M30 31h2M8 32h2M24 32h2M30 32h2M9 33h2M29 33h2M9 34h2M29 34h2M10 35h2M28 35h2M11 36h3M26 36h3M12 37h4M24 37h4M14 38h12M16 39h8" />
<path stroke="rgba(0,64,159,0.03137254901960784)" d="M28 15h1" />
</svg>