<svg xmlns="http://www.w3.org/2000/svg" viewBox="0 -0.5 40 40" shape-rendering="crispEdges">
<metadata>Made with Pixels to Svg https://codepen.io/shshaw/pen/XbxvNj</metadata>
<path stroke="#074d91" d="M5 12h1M17 12h1M29 12h1M4 13h3M16 13h3M28 13h3M4 14h3M16 14h3M28 14h3M4 15h3M16 15h3M28 15h3M3 16h2M6 16h2M15 16h2M18 16h2M27 16h2M30 16h2M3 17h2M6 17h2M15 17h2M18 17h2M27 17h2M30 17h2M2 18h2M7 18h2M14 18h2M19 18h2M26 18h2M31 18h2M0 19h4M7 19h2M14 19h2M19 19h2M26 19h2M31 19h2M37 19h3M0 20h4M7 20h3M13 20h3M19 20h3M25 20h3M31 20h3M37 20h3M8 21h2M13 21h2M20 21h2M25 21h2M32 21h2M37 21h2M8 22h2M13 22h2M20 22h2M25 22h2M32 22h2M37 22h2M9 23h2M12 23h2M21 23h2M24 23h2M33 23h2M36 23h2M9 24h2M12 24h2M21 24h2M24 24h2M33 24h2M36 24h2M10 25h3M22 25h3M34 25h3M10 26h3M22 26h3M34 26h3M10 27h3M22 27h3M34 27h3M11 28h1M23 28h1M35 28h1" />
</svg>