<svg xmlns="http://www.w3.org/2000/svg" viewBox="0 -0.5 40 40" shape-rendering="crispEdges">
<metadata>Made with Pixels to Svg https://codepen.io/shshaw/pen/XbxvNj</metadata>
<path stroke="#0000e7" d="M14 8h9M12 9h13M10 10h4M23 10h4M9 11h3M25 11h3M8 12h3M18 12h1M26 12h3M8 13h2M18 13h4M27 13h2M7 14h2M19 14h4M28 14h2M7 15h2M21 15h2M28 15h2M6 16h2M21 16h2M29 16h2M6 17h2M21 17h2M29 17h2M6 18h2M21 18h2M29 18h2M0 19h8M18 19h5M29 19h11M0 20h8M16 20h6M29 20h11M6 21h2M15 21h4M29 21h2M6 22h2M15 22h2M29 22h2M6 23h2M15 23h2M29 23h2M6 24h2M15 24h2M29 24h2M7 25h2M15 25h2M28 25h2M7 26h2M15 26h5M28 26h2M8 27h2M16 27h4M27 27h2M8 28h3M26 28h3M9 29h3M25 29h3M10 30h4M23 30h4M12 31h13M14 32h9" />
<path stroke="#000000" d="M0 25h1M0 26h1M0 27h1M0 28h1M0 29h1M0 30h1M0 31h1" />
<path stroke="#ff0000" d="M36 25h1M36 26h1M36 27h1M33 28h7M36 29h1M36 30h1M36 31h1" />
</svg>