<svg xmlns="http://www.w3.org/2000/svg" viewBox="0 -0.5 40 40" shape-rendering="crispEdges">
<metadata>Made with Pixels to Svg https://codepen.io/shshaw/pen/XbxvNj</metadata>
<path stroke="#074d91" d="M16 7h7M14 8h11M12 9h4M23 9h4M11 10h3M25 10h3M10 11h2M27 11h2M9 12h2M28 12h2M9 13h2M28 13h2M8 14h2M13 14h4M29 14h2M8 15h2M12 15h6M29 15h2M7 16h2M12 16h2M16 16h3M30 16h2M7 17h2M11 17h3M17 17h2M25 17h2M30 17h2M7 18h2M11 18h2M17 18h3M25 18h2M30 18h2M0 19h9M11 19h2M18 19h2M25 19h2M30 19h10M0 20h9M11 20h2M18 20h2M25 20h2M30 20h10M7 21h2M11 21h2M19 21h2M24 21h3M30 21h2M7 22h2M19 22h3M24 22h2M30 22h2M7 23h2M20 23h6M30 23h2M8 24h2M21 24h4M29 24h2M8 25h2M29 25h2M2 26h1M9 26h2M28 26h2M36 26h1M2 27h1M9 27h2M28 27h2M36 27h1M2 28h1M10 28h2M27 28h2M36 28h1M2 29h1M11 29h3M25 29h3M33 29h7M2 30h1M12 30h4M23 30h4M36 30h1M2 31h1M14 31h11M36 31h1M2 32h1M16 32h7M36 32h1" />
<path stroke="rgba(7,77,145,0.9921568627450981)" d="M20 20h1" />
</svg>