<svg xmlns="http://www.w3.org/2000/svg" viewBox="0 -0.5 40 40" shape-rendering="crispEdges">
<metadata>Made with Pixels to Svg https://codepen.io/shshaw/pen/XbxvNj</metadata>
<path stroke="#0000e7" d="M23 6h2M23 7h2M23 8h2M23 9h2M23 10h2M23 11h2M14 12h4M23 12h2M14 13h4M23 13h2M14 14h4M23 14h2M14 15h4M23 15h2M14 16h4M23 16h2M14 17h4M23 17h2M14 18h4M23 18h2M0 19h18M23 19h17M0 20h18M23 20h17M14 21h4M23 21h2M14 22h4M23 22h2M14 23h4M23 23h2M14 24h4M23 24h2M14 25h4M23 25h2M14 26h4M23 26h2M14 27h4M23 27h2M23 28h2M23 29h2M23 30h2M23 31h2M23 32h2M23 33h2" />
<path stroke="#000000" d="M9 25h1M9 26h1M9 27h1M9 28h1M9 29h1M9 30h1M9 31h1" />
<path stroke="#ff0000" d="M31 25h1M31 26h1M31 27h1M28 28h7M31 29h1M31 30h1M31 31h1" />
</svg>