<svg xmlns="http://www.w3.org/2000/svg" viewBox="0 -0.5 40 40" shape-rendering="crispEdges">
<metadata>Made with Pixels to Svg https://codepen.io/shshaw/pen/XbxvNj</metadata>
<path stroke="#074d91" d="M16 7h7M14 8h11M12 9h4M23 9h4M11 10h3M25 10h3M10 11h2M27 11h2M9 12h2M28 12h2M9 13h2M28 13h2M8 14h2M29 14h2M8 15h2M29 15h2M7 16h2M14 16h2M23 16h2M30 16h2M7 17h2M14 17h2M23 17h2M30 17h2M7 18h2M14 18h2M23 18h2M30 18h2M0 19h9M14 19h2M20 19h8M30 19h10M0 20h9M14 20h2M20 20h8M30 20h10M7 21h2M14 21h2M23 21h2M30 21h2M7 22h2M14 22h2M23 22h2M30 22h2M7 23h2M14 23h2M23 23h2M30 23h2M8 24h2M29 24h2M8 25h2M29 25h2M9 26h2M28 26h2M9 27h2M28 27h2M10 28h2M27 28h2M11 29h3M25 29h3M12 30h4M23 30h4M14 31h11M16 32h7" />
</svg>