<svg xmlns="http://www.w3.org/2000/svg" viewBox="0 -0.5 40 40" shape-rendering="crispEdges">
<metadata>Made with Pixels to Svg https://codepen.io/shshaw/pen/XbxvNj</metadata>
<path stroke="#074d91" d="M16 11h8M14 12h12M12 13h4M24 13h4M11 14h3M26 14h3M10 15h2M28 15h2M9 16h2M29 16h2M9 17h2M22 17h4M29 17h2M8 18h2M22 18h4M30 18h2M8 19h2M18 19h4M30 19h2M7 20h2M18 20h4M31 20h2M7 21h2M14 21h4M31 21h2M7 22h2M14 22h4M31 22h2M7 23h2M12 23h2M31 23h2M7 24h2M12 24h2M31 24h2M7 25h2M14 25h4M31 25h2M7 26h2M14 26h4M31 26h1M7 27h2M18 27h4M31 27h1M8 28h2M18 28h4M30 28h2M8 29h2M22 29h4M30 29h2M9 30h2M22 30h4M29 30h2M9 31h2M29 31h2M4 32h1M9 32h3M28 32h3M35 32h1M4 33h1M9 33h5M26 33h5M35 33h1M4 34h1M9 34h2M12 34h4M24 34h4M29 34h2M35 34h1M1 35h7M9 35h2M14 35h12M29 35h2M35 35h1M4 36h1M9 36h2M16 36h8M29 36h2M35 36h1M4 37h1M9 37h2M29 37h2M35 37h1M4 38h1M9 38h2M29 38h2M35 38h1M9 39h2M29 39h2" />
<path stroke="rgba(7,77,145,0.9725490196078431)" d="M32 26h1" />
<path stroke="rgba(0,102,153,0.0196078431372549)" d="M33 26h1" />
<path stroke="rgba(7,77,145,0.9686274509803922)" d="M32 27h1" />
</svg>