<svg xmlns="http://www.w3.org/2000/svg" viewBox="0 -0.5 40 40" shape-rendering="crispEdges">
<metadata>Made with Pixels to Svg https://codepen.io/shshaw/pen/XbxvNj</metadata>
<path stroke="#074d91" d="M16 11h8M14 12h12M12 13h4M24 13h4M11 14h3M26 14h3M10 15h2M28 15h2M9 16h2M19 16h2M29 16h2M9 17h2M19 17h2M29 17h2M8 18h2M17 18h2M21 18h2M30 18h2M8 19h2M17 19h2M21 19h2M30 19h2M7 20h2M17 20h2M21 20h2M31 20h2M7 21h2M17 21h2M21 21h2M31 21h2M7 22h2M15 22h2M23 22h2M31 22h2M7 23h2M15 23h2M23 23h2M31 23h2M7 24h2M15 24h2M23 24h2M31 24h2M7 25h2M15 25h2M23 25h2M31 25h2M7 26h2M13 26h2M25 26h2M31 26h1M7 27h2M13 27h2M25 27h2M31 27h1M8 28h2M13 28h2M25 28h2M30 28h2M8 29h2M13 29h2M25 29h2M30 29h2M9 30h2M29 30h2M9 31h2M29 31h2M4 32h1M9 32h3M28 32h3M4 33h1M9 33h5M26 33h5M4 34h1M9 34h2M12 34h4M24 34h4M29 34h2M1 35h7M9 35h2M14 35h12M29 35h2M32 35h7M4 36h1M9 36h2M16 36h8M29 36h2M4 37h1M9 37h2M29 37h2M4 38h1M9 38h2M29 38h2M9 39h2M29 39h2" />
<path stroke="rgba(7,77,145,0.9725490196078431)" d="M32 26h1" />
<path stroke="rgba(0,102,153,0.0196078431372549)" d="M33 26h1" />
<path stroke="rgba(7,77,145,0.9686274509803922)" d="M32 27h1" />
</svg>